<svg xmlns="http://www.w3.org/2000/svg" viewBox="0 0 266.77307 105.31248"><title>quinCI</title><path d="M52.999,103.75537a9.22427,9.22427,0,0,1-9.21387-9.21387V82.02734q-1.459.72949-2.96094,1.31689a26.29074,26.29074,0,0,1-3.77881,1.16016,18.40505,18.40505,0,0,1-4.0415.45215,29.30093,29.30093,0,0,1-11.33838-2.21875,28.49764,28.49764,0,0,1-9.30762-6.23437,29.2852,29.2852,0,0,1-6.27539-9.5752,31.913,31.913,0,0,1-2.2876-12.20605,32.04981,32.04981,0,0,1,2.2876-12.25488,28.73105,28.73105,0,0,1,6.2876-9.53809,28.2258,28.2258,0,0,1,9.31543-6.13281,29.06657,29.06657,0,0,1,6.29639-1.76465,27.80453,27.80453,0,0,1,4.438-.3584,26.44375,26.44375,0,0,1,10.1123,1.97314q.679.27905,1.34668.59229a31.23539,31.23539,0,0,1,4.85791,2.83984c.77344.55127,1.53662,1.12891,2.27344,1.72119l2.90234-3.47705a4.69557,4.69557,0,0,1,8.30029,3.00879v63.21A9.22427,9.22427,0,0,1,52.999,103.75537ZM33.00391,43.01318a10.9091,10.9091,0,0,0-4.19531.811,9.69462,9.69462,0,0,0-3.35205,2.27832A11.03745,11.03745,0,0,0,23.17285,49.752a13.5862,13.5862,0,0,0-.85254,4.97021,14.2655,14.2655,0,0,0,.8584,5.13135,10.40332,10.40332,0,0,0,2.25391,3.61035,9.44038,9.44038,0,0,0,3.33643,2.189,11.49565,11.49565,0,0,0,4.23486.77832,8.91158,8.91158,0,0,0,4.042-.93652,11.77989,11.77989,0,0,0,3.4873-2.62012,12.80388,12.80388,0,0,0,2.38867-3.80225,11.393,11.393,0,0,0,0-8.70068,12.80779,12.80779,0,0,0-2.38916-3.80225,11.78242,11.78242,0,0,0-3.48682-2.61963A8.91452,8.91452,0,0,0,33.00391,43.01318Z" transform="translate(-1.29492 -0.94289)" style="fill:#f44336"/><path d="M32.41946,27.17322a24.09565,24.09565,0,0,1,9.16214,1.78534q.62256.256,1.23676.54388a28.62662,28.62662,0,0,1,4.46777,2.6123q1.27982.91219,2.47983,1.89511a2.036,2.036,0,0,0,1.29532.4622,2.08457,2.08457,0,0,0,1.602-.75073l3.1687-3.79645a2.19541,2.19541,0,0,1,3.88089,1.40678V94.5415a6.71387,6.71387,0,1,1-13.42773,0V81.3679a2.09233,2.09233,0,0,0-3.06888-1.85767l-.03171.01662a32.927,32.927,0,0,1-3.27148,1.48926,23.66958,23.66958,0,0,1-3.418,1.0498,15.84354,15.84354,0,0,1-3.49121.39063,26.68537,26.68537,0,0,1-10.376-2.02637,25.88589,25.88589,0,0,1-8.49609-5.68848,26.67467,26.67467,0,0,1-5.7373-8.76465,29.3,29.3,0,0,1-2.09961-11.2549,29.43566,29.43566,0,0,1,2.09961-11.3037,26.13323,26.13323,0,0,1,5.7373-8.71582,25.63447,25.63447,0,0,1,8.49609-5.59082,26.4629,26.4629,0,0,1,5.7551-1.6123,25.19957,25.19957,0,0,1,4.03644-.32629m.58444,41.75793a11.45428,11.45428,0,0,0,5.15137-1.1963A14.2025,14.2025,0,0,0,42.37891,64.561a15.23692,15.23692,0,0,0,2.85645-4.541,13.89278,13.89278,0,0,0,0-10.59572,15.23654,15.23654,0,0,0-2.85645-4.541,14.21141,14.21141,0,0,0-4.22363-3.17386,11.46128,11.46128,0,0,0-5.15137-1.19627,13.33309,13.33309,0,0,0-5.15137,1.001,12.26138,12.26138,0,0,0-4.19922,2.85646,13.4664,13.4664,0,0,0-2.80762,4.46776,15.99471,15.99471,0,0,0-1.02539,5.88377,16.67248,16.67248,0,0,0,1.02539,6.03029,12.82354,12.82354,0,0,0,2.80762,4.46779A12.00635,12.00635,0,0,0,27.85254,67.979a13.92538,13.92538,0,0,0,5.15137.95215m-.58444-46.75793a30.28052,30.28052,0,0,0-4.83771.39091,31.59453,31.59453,0,0,0-6.83893,1.91664,30.727,30.727,0,0,0-10.13474,6.67456A31.22241,31.22241,0,0,0,3.7706,41.51605a34.53443,34.53443,0,0,0-2.47568,13.2061,34.40006,34.40006,0,0,0,2.47592,13.1579A31.76792,31.76792,0,0,0,10.58463,78.2655a30.978,30.978,0,0,0,10.11914,6.7796,31.7812,31.7812,0,0,0,12.30014,2.41144,20.92563,20.92563,0,0,0,4.58963-.51279,28.76415,28.76415,0,0,0,3.69162-1.09967V94.5415a11.71387,11.71387,0,0,0,23.42773,0V31.33167a7.19543,7.19543,0,0,0-12.71951-4.61072l-1.36707,1.63791q-.21835-.1591-.43814-.31573a33.77575,33.77575,0,0,0-5.24765-3.068c-.48007-.225-.97046-.44067-1.45752-.641a28.94089,28.94089,0,0,0-11.06354-2.161Zm.58444,41.75793a8.89232,8.89232,0,0,1-3.31876-.60419,6.99682,6.99682,0,0,1-2.47186-1.61768,7.82784,7.82784,0,0,1-1.70184-2.7543,11.80785,11.80785,0,0,1-.69113-4.23283,11.12207,11.12207,0,0,1,.67972-4.057,8.44815,8.44815,0,0,1,1.75925-2.83089,7.24839,7.24839,0,0,1,2.50677-1.70079,8.30715,8.30715,0,0,1,3.23785-.62032,6.467,6.467,0,0,1,2.93384.67763A9.169,9.169,0,0,1,38.68765,48.256a10.18064,10.18064,0,0,1,1.921,3.06393,8.893,8.893,0,0,1-.00046,6.8056A10.18016,10.18016,0,0,1,38.687,61.18907a9.15949,9.15949,0,0,1-2.7493,2.06444,6.46229,6.46229,0,0,1-2.93384.67764Z" transform="translate(-1.29492 -0.94289)" style="fill:#f44336"/><path d="M87.84131,84.80908a26.64417,26.64417,0,0,1-9.78223-1.88867,24.56632,24.56632,0,0,1-13.85937-13.9043,29.35631,29.35631,0,0,1-2.01416-11.07129V35.6792a9.14063,9.14063,0,1,1,18.28125,0V57.94482A10.52486,10.52486,0,0,0,81.103,61.752a7.90359,7.90359,0,0,0,1.64063,2.65918,6.54232,6.54232,0,0,0,2.32861,1.564,8.04735,8.04735,0,0,0,3.00049.55371,5.78656,5.78656,0,0,0,2.63086-.61963A8.34509,8.34509,0,0,0,93.27295,63.916a9.64243,9.64243,0,0,0,1.70459-2.813,8.444,8.444,0,0,0,.60645-3.1582V35.70361a9.165,9.165,0,0,1,18.33008,0v43.499a4.63119,4.63119,0,0,1-8.38965,2.70557l-2.18066-3.02832q-.75586.59253-1.54687,1.15088a28.56391,28.56391,0,0,1-4.20166,2.46191,26.31424,26.31424,0,0,1-4.55664,1.67139,19.677,19.677,0,0,1-5.03369.64551Z" transform="translate(-1.29492 -0.94289)" style="fill:#fff"/><path d="M104.749,29.03857a6.665,6.665,0,0,1,6.665,6.665V79.20244a2.131,2.131,0,0,1-2.131,2.13106h0a2.1311,2.1311,0,0,1-1.7294-.88586L103.79688,75.23a35.92046,35.92046,0,0,1-3.44238,2.75879,25.92127,25.92127,0,0,1-3.833,2.24608,23.6982,23.6982,0,0,1-4.12259,1.5128,17.2092,17.2092,0,0,1-4.397.56209c-.04694,0-.09369-.00018-.14062-.00055a24.05264,24.05264,0,0,1-8.86911-1.70811A22.0688,22.0688,0,0,1,66.5166,68.07666a26.75107,26.75107,0,0,1-1.83105-10.13185V35.6792a6.64063,6.64063,0,0,1,13.28125,0V57.94481a12.94182,12.94182,0,0,0,.80566,4.71193,10.33327,10.33327,0,0,0,2.17285,3.49121,9.08082,9.08082,0,0,0,3.19824,2.14845,10.4842,10.4842,0,0,0,3.92807.73241h.00171a8.32581,8.32581,0,0,0,3.75638-.88745A10.89355,10.89355,0,0,0,95.1543,65.562a12.068,12.068,0,0,0,2.14844-3.54,11.0082,11.0082,0,0,0,.78125-4.07716V35.70361a6.665,6.665,0,0,1,6.665-6.665m0-5a11.67825,11.67825,0,0,0-11.665,11.665v22.2412a5.99744,5.99744,0,0,1-.43188,2.241,7.03737,7.03737,0,0,1-1.261,2.08411,5.88717,5.88717,0,0,1-1.81232,1.4068,3.31224,3.31224,0,0,1-1.50543.35211,5.487,5.487,0,0,1-2.07288-.37482,4.09789,4.09789,0,0,1-1.457-.9778,5.36385,5.36385,0,0,1-1.1098-1.82864,8.06738,8.06738,0,0,1-.46689-2.90274V35.6792a11.64062,11.64062,0,1,0-23.28125,0V57.94481A31.8342,31.8342,0,0,0,61.883,69.95535,27.066,27.066,0,0,0,77.12625,85.23987a29.14065,29.14065,0,0,0,10.696,2.06915l.17966.0007a22.19612,22.19612,0,0,0,5.67615-.72845,28.828,28.828,0,0,0,4.99057-1.8309,31.036,31.036,0,0,0,4.1192-2.36462l.70807.9834a7.13105,7.13105,0,0,0,12.91815-4.1667V35.70361a11.67825,11.67825,0,0,0-11.665-11.665Z" transform="translate(-1.29492 -0.94289)" style="fill:#f44336"/><path d="M123.15137,83.8335a9.22459,9.22459,0,0,1-9.21387-9.21387V35.75244a9.21387,9.21387,0,0,1,18.42773,0V74.61963A9.22459,9.22459,0,0,1,123.15137,83.8335Zm.02441-57.61719a11.21571,11.21571,0,0,1-4.48535-.91406,11.445,11.445,0,0,1-6.03125-6.001,11.28141,11.28141,0,0,1-.00488-8.9082,11.38078,11.38078,0,0,1,6.03711-6.03662,11.4604,11.4604,0,0,1,8.96777,0,11.88947,11.88947,0,0,1,3.61328,2.41211,11.39033,11.39033,0,0,1,2.47363,3.62451,11.28141,11.28141,0,0,1-.00488,8.9082,11.453,11.453,0,0,1-2.46777,3.58789,11.873,11.873,0,0,1-3.61328,2.41357A11.22243,11.22243,0,0,1,123.17578,26.21631Z" transform="translate(-1.29492 -0.94289)" style="fill:#fff"/><path d="M123.1756,5.94289a8.70113,8.70113,0,0,1,3.49121.708,9.34623,9.34623,0,0,1,2.85645,1.90431,8.84257,8.84257,0,0,1,1.92871,2.832,8.78192,8.78192,0,0,1,0,6.90918,8.91007,8.91007,0,0,1-1.92871,2.80762,9.3286,9.3286,0,0,1-2.85645,1.90428,8.96147,8.96147,0,0,1-6.98242,0,8.94227,8.94227,0,0,1-4.73633-4.7119,8.78192,8.78192,0,0,1,0-6.90918,8.87713,8.87713,0,0,1,4.73633-4.73633,8.69773,8.69773,0,0,1,3.49121-.708m-.02441,23.09569a6.71389,6.71389,0,0,1,6.71387,6.71387V74.61961a6.71387,6.71387,0,0,1-13.42773,0V35.75244a6.71385,6.71385,0,0,1,6.71387-6.71387M123.1756.94289a13.70849,13.70849,0,0,0-5.47638,1.119A13.87486,13.87486,0,0,0,110.35907,9.402a13.78077,13.78077,0,0,0,.01166,10.90636,14.11622,14.11622,0,0,0,2.94714,4.33223,13.75992,13.75992,0,0,0,2.50494,1.97969,11.69781,11.69781,0,0,0-4.3855,9.13216V74.61961a11.71387,11.71387,0,1,0,23.42773,0V35.75244a11.69631,11.69631,0,0,0-4.36285-9.11392,14.13739,14.13739,0,0,0,2.52106-1.96382,13.92673,13.92673,0,0,0,3.006-4.36633,13.781,13.781,0,0,0,.012-10.90559,13.8627,13.8627,0,0,0-3.017-4.41724,14.37275,14.37275,0,0,0-4.37048-2.9229A13.71543,13.71543,0,0,0,123.1756.94289Z" transform="translate(-1.29492 -0.94289)" style="fill:#f44336"/><path d="M175.21777,83.8335a9.1753,9.1753,0,0,1-9.165-9.165V51.45068a7.2583,7.2583,0,0,0-.58105-2.90137,7.56326,7.56326,0,0,0-4.01562-4.03271,7.07951,7.07951,0,0,0-2.86426-.57568,7.54252,7.54252,0,0,0-2.98535.58545,7.43362,7.43362,0,0,0-4.041,4.02295,7.23149,7.23149,0,0,0-.58105,2.90137V74.66846a9.165,9.165,0,1,1-18.33008,0v-43.418a4.71145,4.71145,0,0,1,8.27539-3.082l2.1377,2.47021a25.95118,25.95118,0,0,1,15.52441-5.12549,25.16123,25.16123,0,0,1,10.02246,2.03516,25.99513,25.99513,0,0,1,8.207,5.564,26.43142,26.43142,0,0,1,5.52832,8.24707,25.457,25.457,0,0,1,2.0332,10.09131V74.66846A9.1753,9.1753,0,0,1,175.21777,83.8335Z" transform="translate(-1.29492 -0.94289)" style="fill:#fff"/><path d="M158.5918,28.01318a22.57735,22.57735,0,0,1,9.0332,1.83105,23.39629,23.39629,0,0,1,7.42188,5.0293,23.81481,23.81481,0,0,1,5.00488,7.4707,22.8731,22.8731,0,0,1,1.83105,9.10645V74.66846a6.665,6.665,0,1,1-13.33008,0V51.45068a9.79386,9.79386,0,0,0-.78125-3.88185,10.06361,10.06361,0,0,0-5.32227-5.34668,9.61989,9.61989,0,0,0-3.85742-.78123,10.09193,10.09193,0,0,0-3.95508.78123,9.93623,9.93623,0,0,0-5.37109,5.34668,9.78536,9.78536,0,0,0-.78125,3.88185V74.66846a6.665,6.665,0,1,1-13.33008,0V31.25031a2.21172,2.21172,0,0,1,3.88416-1.44731l3.733,4.31371a23.44958,23.44958,0,0,1,15.82031-6.10352m0-5a28.45249,28.45249,0,0,0-15.09027,4.30629l-.68225-.78836a7.21171,7.21171,0,0,0-12.665,4.71919V74.66846a11.665,11.665,0,1,0,23.33008,0V51.45068a4.7931,4.7931,0,0,1,.37994-1.91914,5.05132,5.05132,0,0,1,1.08527-1.6254,4.98849,4.98849,0,0,1,1.6275-1.07584,5.09591,5.09591,0,0,1,2.01471-.38939,4.63209,4.63209,0,0,1,1.87415.37108,5.13859,5.13859,0,0,1,1.62256,1.09511,5.06143,5.06143,0,0,1,1.08429,1.62439,4.79977,4.79977,0,0,1,.37994,1.91919V74.66846a11.665,11.665,0,1,0,23.33008,0V51.45068a27.95022,27.95022,0,0,0-2.23523-11.07584,28.90338,28.90338,0,0,0-6.05139-9.023,28.48347,28.48347,0,0,0-8.99207-6.09921,27.65118,27.65118,0,0,0-11.01233-2.23944Z" transform="translate(-1.29492 -0.94289)" style="fill:#f44336"/><path d="M222.96289,85.34717a38.0488,38.0488,0,0,1-10.26953-1.38672,38.96977,38.96977,0,0,1-27.07422-27.07422,38.81408,38.81408,0,0,1-.001-20.561,38.9485,38.9485,0,0,1,27.0752-27.10107A38.0488,38.0488,0,0,1,222.96289,7.8374,38.81988,38.81988,0,0,1,236.373,10.21191a37.735,37.735,0,0,1,5.37109,2.46338A9.48466,9.48466,0,0,1,245.207,25.88281a9.56558,9.56558,0,0,1-8.124,4.60059,9.27626,9.27626,0,0,1-4.48926-1.16211,19.58845,19.58845,0,0,0-1.81934-.88721,19.89332,19.89332,0,0,0-7.81152-1.583,19.21276,19.21276,0,0,0-7.69629,1.55127,20.47394,20.47394,0,0,0-6.31445,4.2417,19.90016,19.90016,0,0,0-4.25,6.29541,19.26561,19.26561,0,0,0-1.55371,7.67725,18.93418,18.93418,0,0,0,1.54883,7.61816A20.07041,20.07041,0,0,0,215.2666,64.78223a19.21276,19.21276,0,0,0,7.69629,1.55127,19.88281,19.88281,0,0,0,7.8125-1.5835,19.47468,19.47468,0,0,0,1.81934-.88672,9.27253,9.27253,0,0,1,4.48828-1.16211,9.55516,9.55516,0,0,1,8.11035,4.57764,9.484,9.484,0,0,1-3.47461,13.21289,38.60779,38.60779,0,0,1-18.75586,4.85547Z" transform="translate(-1.29492 -0.94289)"/><path d="M222.96246,10.33742a36.15422,36.15422,0,0,1,12.54889,2.22166,35.03081,35.03081,0,0,1,5.01355,2.2986,6.98619,6.98619,0,0,1,2.54639,9.72633l-.01428.02348a7.01319,7.01319,0,0,1-5.97443,3.3759,6.72888,6.72888,0,0,1-3.27576-.84824,21.77781,21.77781,0,0,0-2.05524-1.00186,22.27557,22.27557,0,0,0-8.78912-1.78223,21.60068,21.60068,0,0,0-8.69135,1.75781,22.85838,22.85838,0,0,0-7.08008,4.76073,22.28681,22.28681,0,0,0-4.78516,7.08009,21.6588,21.6588,0,0,0-1.75781,8.667,21.31073,21.31073,0,0,0,1.75781,8.61816,22.56719,22.56719,0,0,0,11.86523,11.84082,21.60068,21.60068,0,0,0,8.69135,1.75781,22.267,22.267,0,0,0,8.78912-1.78223,21.75221,21.75221,0,0,0,2.05585-1.00194,6.72914,6.72914,0,0,1,3.27527-.848,7.01291,7.01291,0,0,1,5.97443,3.376v0a6.98436,6.98436,0,0,1-2.55273,9.72957,36.11114,36.11114,0,0,1-17.54193,4.5403,35.37916,35.37916,0,0,1-9.59467-1.29393,36.46857,36.46857,0,0,1-25.3418-25.3418,36.31039,36.31039,0,0,1,0-19.21387,36.45107,36.45107,0,0,1,25.3418-25.36621,35.37916,35.37916,0,0,1,9.59467-1.29393m0-5a40.54308,40.54308,0,0,0-10.94427,1.47951,41.42066,41.42066,0,0,0-28.80841,28.83762,41.30846,41.30846,0,0,0,.0022,21.90788,41.46863,41.46863,0,0,0,28.80621,28.80522,40.54309,40.54309,0,0,0,10.94427,1.47952,41.11139,41.11139,0,0,0,19.97192-5.1705,11.84983,11.84983,0,0,0,5.74255-7.39185,12.01577,12.01577,0,0,0-11.59406-15.08351,11.78116,11.78116,0,0,0-5.70123,1.47588,16.82988,16.82988,0,0,1-1.58368.77153,17.1602,17.1602,0,0,1-6.83551,1.38478,16.5032,16.5032,0,0,1-6.70135-1.34476,17.56818,17.56818,0,0,1-9.27252-9.2536,16.21722,16.21722,0,0,1-1.34052-6.61844,16.55907,16.55907,0,0,1,1.3493-6.68756,17.17477,17.17477,0,0,1,3.7146-5.50941,17.9855,17.9855,0,0,1,5.54852-3.72365,16.50426,16.50426,0,0,1,6.702-1.345,17.1682,17.1682,0,0,1,6.83612,1.385,16.85627,16.85627,0,0,1,1.58234.77112,11.78063,11.78063,0,0,0,5.70172,1.47617,12.07032,12.07032,0,0,0,10.24664-5.77826,11.98618,11.98618,0,0,0-4.36713-16.71321,40.21368,40.21368,0,0,0-5.72791-2.62663,41.309,41.309,0,0,0-14.27179-2.52786Z" transform="translate(-1.29492 -0.94289)"/><path d="M256.06152,83.8335a9.51747,9.51747,0,0,1-9.50684-9.50684V18.3208a9.50684,9.50684,0,0,1,19.01367,0V74.32666A9.51747,9.51747,0,0,1,256.06152,83.8335Z" transform="translate(-1.29492 -0.94289)"/><path d="M256.06116,11.314a7.00686,7.00686,0,0,1,7.00684,7.00682V74.32668a7.00686,7.00686,0,0,1-7.00684,7.00682h-.00006a7.0068,7.0068,0,0,1-7.00677-7.00682V18.32079A7.0068,7.0068,0,0,1,256.0611,11.314h.00006m0-5a12.02042,12.02042,0,0,0-12.00684,12.00682V74.32668a12.00684,12.00684,0,0,0,24.01367,0V18.32079A12.02042,12.02042,0,0,0,256.06116,6.314Z" transform="translate(-1.29492 -0.94289)"/><path d="M32.41949,30.1732a20.98006,20.98006,0,0,1,8.02112,1.55991q.556.22861,1.10443.48572a25.752,25.752,0,0,1,3.99985,2.33887c.79486.56656,1.57547,1.16309,2.32013,1.773a5.068,5.068,0,0,0,7.10147-.68706l1.7464-2.09239V94.5415a3.71387,3.71387,0,0,1-7.42773,0V81.36789a5.09261,5.09261,0,0,0-7.49155-4.49908,30.0742,30.0742,0,0,1-2.97369,1.35358,20.76945,20.76945,0,0,1-2.9838.91682,12.91532,12.91532,0,0,1-2.83221.31734,23.82545,23.82545,0,0,1-9.2215-1.79533,23.02007,23.02007,0,0,1-7.52225-5.0338,23.816,23.816,0,0,1-5.0914-7.79218A26.45618,26.45618,0,0,1,9.29492,54.72218a26.59428,26.59428,0,0,1,1.874-10.16229A23.27141,23.27141,0,0,1,16.24609,36.831,22.76792,22.76792,0,0,1,23.759,31.89043a23.583,23.583,0,0,1,5.10492-1.4297,22.25414,22.25414,0,0,1,3.5556-.28752m.58441,41.75795a14.48042,14.48042,0,0,0,6.4819-1.50749,17.25762,17.25762,0,0,0,5.10825-3.83946,18.29954,18.29954,0,0,0,3.4176-5.42747,16.89261,16.89261,0,0,0-.00027-12.8698,18.299,18.299,0,0,0-3.41776-5.42723,17.26689,17.26689,0,0,0-5.10782-3.839,14.48724,14.48724,0,0,0-6.4819-1.50749,16.38119,16.38119,0,0,0-6.29947,1.22935,15.29962,15.29962,0,0,0-5.21469,3.54985,16.5116,16.5116,0,0,0-3.43665,5.44992,19.0442,19.0442,0,0,0-1.23279,6.97987,19.72326,19.72326,0,0,0,1.226,7.10872,15.85709,15.85709,0,0,0,3.47107,5.49583A15.04235,15.04235,0,0,0,26.753,70.77025a16.97749,16.97749,0,0,0,6.25095,1.1609M58.13516,31.84721h0m-25.71567-4.674a25.19891,25.19891,0,0,0-4.03641.32629,26.46294,26.46294,0,0,0-5.75516,1.6123,25.63447,25.63447,0,0,0-8.49609,5.59082,26.13323,26.13323,0,0,0-5.7373,8.71582A29.43571,29.43571,0,0,0,6.29492,54.72218,29.2998,29.2998,0,0,0,8.39453,65.977a26.67442,26.67442,0,0,0,5.7373,8.76466,25.88613,25.88613,0,0,0,8.49609,5.68848,26.68537,26.68537,0,0,0,10.376,2.02637,15.84536,15.84536,0,0,0,3.49121-.39061,23.67156,23.67156,0,0,0,3.418-1.04982,32.927,32.927,0,0,0,3.27148-1.48926l.03171-.0166a2.09233,2.09233,0,0,1,3.06888,1.85764V94.5415a6.71387,6.71387,0,1,0,13.42773,0V31.33165A2.19542,2.19542,0,0,0,55.832,29.92487l-3.1687,3.79646a2.08458,2.08458,0,0,1-1.60205.75073,2.03588,2.03588,0,0,1-1.29529-.4622q-1.2-.98291-2.47983-1.89511a28.62782,28.62782,0,0,0-4.46777-2.6123q-.61418-.28793-1.23685-.54393a24.09586,24.09586,0,0,0-9.162-1.78529Zm.58441,41.75793a13.92538,13.92538,0,0,1-5.15137-.95215,12.00617,12.00617,0,0,1-4.19922-2.75879,12.82333,12.82333,0,0,1-2.80762-4.46777,16.67237,16.67237,0,0,1-1.02539-6.03026,15.99476,15.99476,0,0,1,1.02539-5.8838,13.46678,13.46678,0,0,1,2.80762-4.46777,12.26155,12.26155,0,0,1,4.19922-2.85645,13.33365,13.33365,0,0,1,5.15137-1.001,11.46109,11.46109,0,0,1,5.15137,1.19629,14.21126,14.21126,0,0,1,4.22363,3.17381,15.23707,15.23707,0,0,1,2.85645,4.541,13.89274,13.89274,0,0,1,0,10.5957,15.23707,15.23707,0,0,1-2.85645,4.541,14.203,14.203,0,0,1-4.22363,3.17381,11.45467,11.45467,0,0,1-5.15137,1.19629Z" transform="translate(-1.29492 -0.94289)" style="fill:#fff"/><path d="M222.96246,13.3374a33.33094,33.33094,0,0,1,11.5152,2.038,32.18765,32.18765,0,0,1,4.5849,2.10179,3.92388,3.92388,0,0,1,1.895,2.44891,4.043,4.043,0,0,1-3.87494,5.05733,3.70973,3.70973,0,0,1-1.82019-.47145,24.89763,24.89763,0,0,0-2.339-1.14034,25.36227,25.36227,0,0,0-9.96094-2.02054,24.68,24.68,0,0,0-9.885,2.00549,25.94968,25.94968,0,0,0-7.999,5.383A25.37422,25.37422,0,0,0,199.651,36.762a24.74043,24.74043,0,0,0-2.00293,9.85466,24.39138,24.39138,0,0,0,2.00818,9.818,25.5669,25.5669,0,0,0,13.4209,13.39313,24.68,24.68,0,0,0,9.88531,2.00565,25.353,25.353,0,0,0,9.9613-2.02071,24.86915,24.86915,0,0,0,2.33911-1.14015,3.70988,3.70988,0,0,1,1.82-.47131,4.02363,4.02363,0,0,1,3.41089,1.93449,3.97051,3.97051,0,0,1,.449,3.1039,3.91749,3.91749,0,0,1-1.89642,2.44525,33.111,33.111,0,0,1-16.08392,4.1622,32.54454,32.54454,0,0,1-8.78491-1.1826,33.4684,33.4684,0,0,1-23.26312-23.26375,33.31107,33.31107,0,0,1,.00134-17.59744A33.21156,33.21156,0,0,1,199.49811,23.103a33.30934,33.30934,0,0,1,14.67944-8.583,32.54454,32.54454,0,0,1,8.78491-1.1826m0-3a35.37916,35.37916,0,0,0-9.59467,1.29395A36.42088,36.42088,0,0,0,188.026,36.99756a36.31039,36.31039,0,0,0,0,19.21387,36.46864,36.46864,0,0,0,25.3418,25.3418,35.37916,35.37916,0,0,0,9.59467,1.29395,36.11131,36.11131,0,0,0,17.54193-4.54031,6.98436,6.98436,0,0,0,2.55273-9.72957v0a7.01289,7.01289,0,0,0-5.97443-3.37595,6.72912,6.72912,0,0,0-3.27527.848,21.75592,21.75592,0,0,1-2.05585,1.00194,22.267,22.267,0,0,1-8.78912,1.78223,21.60068,21.60068,0,0,1-8.69135-1.75781,22.56719,22.56719,0,0,1-11.86523-11.84082,21.31078,21.31078,0,0,1-1.75781-8.61816,21.65886,21.65886,0,0,1,1.75781-8.667,22.28657,22.28657,0,0,1,4.78516-7.08008,22.85815,22.85815,0,0,1,7.08008-4.76074,21.60068,21.60068,0,0,1,8.69135-1.75781,22.27557,22.27557,0,0,1,8.78912,1.78223,21.77781,21.77781,0,0,1,2.05524,1.00186,6.72871,6.72871,0,0,0,3.27576.84824,7.01316,7.01316,0,0,0,5.97443-3.3759l.01428-.02348a6.98618,6.98618,0,0,0-2.54639-9.72633,35.03081,35.03081,0,0,0-5.01355-2.2986,36.15424,36.15424,0,0,0-12.54889-2.22168Z" transform="translate(-1.29492 -0.94289)" style="fill:#fff"/><path d="M256.06116,14.314A4.01135,4.01135,0,0,1,260.068,18.3208V74.32666a4.00684,4.00684,0,0,1-8.01367,0V18.3208a4.01135,4.01135,0,0,1,4.00684-4.00684m0-3h-.00006a7.0068,7.0068,0,0,0-7.00677,7.00684V74.32666a7.0068,7.0068,0,0,0,7.00677,7.00684h.00006a7.00685,7.00685,0,0,0,7.00684-7.00684V18.3208a7.00685,7.00685,0,0,0-7.00684-7.00684Z" transform="translate(-1.29492 -0.94289)" style="fill:#fff"/></svg>